
    <svg width="300" height="300" xmlns="http://www.w3.org/2000/svg">
        <!-- Latar Belakang dan Garis -->
        <rect width="100%" height="100%" fill="#F7F7F7"/>
        <g id="grid">
            <!-- Membuat grid 10x10 -->
            <path stroke="#CCC" d="
                M 30,0 V 300 M 60,0 V 300 M 90,0 V 300 M 120,0 V 300 M 150,0 V 300 M 180,0 V 300 M 210,0 V 300 M 240,0 V 300 M 270,0 V 300
                M 0,30 H 300 M 0,60 H 300 M 0,90 H 300 M 0,120 H 300 M 0,150 H 300 M 0,180 H 300 M 0,210 H 300 M 0,240 H 300 M 0,270 H 300
            "/>
        </g>
        <!-- Nomor Kotak -->
        <g id="numbers" font-size="8" font-family="sans-serif" text-anchor="middle">
            <text x="15" y="290">1</text><text x="45" y="290">2</text><text x="75" y="290">3</text><text x="105" y="290">4</text><text x="135" y="290">5</text><text x="165" y="290">6</text><text x="195" y="290">7</text><text x="225" y="290">8</text><text x="255" y="290">9</text><text x="285" y="290">10</text><text x="285" y="260">11</text><text x="255" y="260">12</text><text x="225" y="260">13</text><text x="195" y="260">14</text><text x="165" y="260">15</text><text x="135" y="260">16</text><text x="105" y="260">17</text><text x="75" y="260">18</text><text x="45" y="260">19</text><text x="15" y="260">20</text><text x="15" y="230">21</text><text x="45" y="230">22</text><text x="75" y="230">23</text><text x="105" y="230">24</text><text x="135" y="230">25</text><text x="165" y="230">26</text><text x="195" y="230">27</text><text x="225" y="230">28</text><text x="255" y="230">29</text><text x="285" y="230">30</text><text x="285" y="200">31</text><text x="255" y="200">32</text><text x="225" y="200">33</text><text x="195" y="200">34</text><text x="165" y="200">35</text><text x="135" y="200">36</text><text x="105" y="200">37</text><text x="75" y="200">38</text><text x="45" y="200">39</text><text x="15" y="200">40</text><text x="15" y="170">41</text><text x="45" y="170">42</text><text x="75" y="170">43</text><text x="105" y="170">44</text><text x="135" y="170">45</text><text x="165" y="170">46</text><text x="195" y="170">47</text><text x="225" y="170">48</text><text x="255" y="170">49</text><text x="285" y="170">50</text><text x="285" y="140">51</text><text x="255" y="140">52</text><text x="225" y="140">53</text><text x="195" y="140">54</text><text x="165" y="140">55</text><text x="135" y="140">56</text><text x="105" y="140">57</text><text x="75" y="140">58</text><text x="45" y="140">59</text><text x="15" y="140">60</text><text x="15" y="110">61</text><text x="45" y="110">62</text><text x="75" y="110">63</text><text x="105" y="110">64</text><text x="135" y="110">65</text><text x="165" y="110">66</text><text x="195" y="110">67</text><text x="225" y="110">68</text><text x="255" y="110">69</text><text x="285" y="110">70</text><text x="285" y="80">71</text><text x="255" y="80">72</text><text x="225" y="80">73</text><text x="195" y="80">74</text><text x="165" y="80">75</text><text x="135" y="80">76</text><text x="105" y="80">77</text><text x="75" y="80">78</text><text x="45" y="80">79</text><text x="15" y="80">80</text><text x="15" y="50">81</text><text x="45" y="50">82</text><text x="75" y="50">83</text><text x="105" y="50">84</text><text x="135" y="50">85</text><text x="165" y="50">86</text><text x="195" y="50">87</text><text x="225" y="50">88</text><text x="255" y="50">89</text><text x="285" y="50">90</text><text x="285" y="20">91</text><text x="255" y="20">92</text><text x="225" y="20">93</text><text x="195" y="20">94</text><text x="165" y="20">95</text><text x="135" y="20">96</text><text x="105" y="20">97</text><text x="75" y="20">98</text><text x="45" y="20">99</text><text x="15" y="20">100</text>
        </g>
        <!-- Ular dan Tangga (visual sederhana) -->
        <g id="snakes_ladders" stroke-width="2">
            <!-- Tangga (hijau) -->
            <line x1="105" y1="285" x2="195" y2="255" stroke="#4CAF50"/><line x1="255" y1="285" x2="285" y2="195" stroke="#4CAF50"/><line x1="15" y1="255" x2="75" y2="195" stroke="#4CAF50"/><line x1="225" y1="225" x2="105" y2="45" stroke="#4CAF50"/><line x1="15" y1="195" x2="45" y2="135" stroke="#4CAF50"/><line x1="285" y1="135" x2="195" y2="105" stroke="#4CAF50"/><line x1="75" y1="105" x2="15" y2="45" stroke="#4CAF50"/><line x1="285" y1="75" x2="285" y2="15" stroke="#4CAF50"/>
            <!-- Ular (merah) -->
            <line x1="105" y1="255" x2="195" y2="285" stroke="#F44336"/><line x1="195" y1="135" x2="195" y2="195" stroke="#F44336"/><line x1="45" y1="105" x2="45" y2="255" stroke="#F44336"/><line x1="105" y1="105" x2="15" y2="135" stroke="#F44336"/><line x1="195" y1="45" x2="105" y2="225" stroke="#F44336"/><line x1="225" y1="15" x2="225" y2="75" stroke="#F44336"/><line x1="165" y1="15" x2="165" y2="75" stroke="#F44336"/><line x1="45" y1="15" x2="75" y2="75" stroke="#F44336"/>
        </g>
        <!-- Pion Pemain -->
        <text x="255" y="255" font-size="20">🚀</text>
    </svg>
    